<?xml version="1.0" encoding="UTF-8"?>
<svg version="1.1" xmlns="http://www.w3.org/2000/svg" width="512" height="512">
<path d="M0 0 C1.45108658 0.00273422 1.45108658 0.00273422 2.93148804 0.00552368 C17.26440977 0.05095174 31.21023917 0.55983928 45.3125 3.3125 C46.65803955 3.55395752 46.65803955 3.55395752 48.03076172 3.80029297 C95.57547049 12.40346381 138.5800725 34.88424602 174.1015625 67.32421875 C175.86330083 68.9085382 177.64338787 70.40640998 179.5 71.875 C182.42583127 74.41072043 184.84633456 77.09439933 187.34765625 80.0390625 C189.49985873 82.52928485 191.74775174 84.91250425 194 87.3125 C224.16343523 120.53334848 243.60815878 162.99083273 252.625 206.6875 C252.77243652 207.39817627 252.91987305 208.10885254 253.07177734 208.84106445 C256.05713787 224.48358366 256.6873098 240.11919606 256.625 256 C256.62226578 257.45108658 256.62226578 257.45108658 256.61947632 258.93148804 C256.57404826 273.26440977 256.06516072 287.21023917 253.3125 301.3125 C253.15152832 302.20952637 252.99055664 303.10655273 252.82470703 304.03076172 C244.22153619 351.57547049 221.74075398 394.5800725 189.30078125 430.1015625 C187.7164618 431.86330083 186.21859002 433.64338787 184.75 435.5 C182.21427957 438.42583127 179.53060067 440.84633456 176.5859375 443.34765625 C174.09571515 445.49985873 171.71249575 447.74775174 169.3125 450 C136.09165152 480.16343523 93.63416727 499.60815878 49.9375 508.625 C49.22682373 508.77243652 48.51614746 508.91987305 47.78393555 509.07177734 C32.14185465 512.05705422 16.50548677 512.6888264 0.625 512.625 C-0.34338806 512.62284485 -1.31177612 512.6206897 -2.30950928 512.61846924 C-16.62863841 512.56738117 -30.61280231 512.17266771 -44.6875 509.3125 C-46.2027124 509.01448486 -46.2027124 509.01448486 -47.74853516 508.71044922 C-73.15657867 503.59820535 -100.45900257 496.15257387 -122.43359375 481.921875 C-127.98413796 479.17658783 -133.30159437 481.35252515 -138.95703125 483.19506836 C-140.75817383 483.77719337 -140.75817383 483.77719337 -142.59570312 484.37107849 C-143.89716844 484.79806627 -145.19859974 485.22515774 -146.5 485.65234375 C-147.8728815 486.09829286 -149.2459322 486.54372135 -150.61914062 486.98866272 C-154.24532836 488.16509472 -157.86926425 489.34831675 -161.49273682 490.53308105 C-165.06031328 491.69842918 -168.62983469 492.85778114 -172.19921875 494.01757812 C-173.61393414 494.47774701 -175.02864768 494.93792157 -176.44335938 495.39810181 C-179.27599127 496.31920534 -182.10940382 497.23785429 -184.94335938 498.15487671 C-191.35599997 500.23273299 -197.76097438 502.32614171 -204.13919067 504.50776196 C-206.92574361 505.45883352 -209.71707785 506.39537095 -212.5090332 507.33044624 C-214.42809817 507.9795849 -216.34020254 508.64919103 -218.25195312 509.31956482 C-227.10226692 512.2721213 -236.11016418 514.20481037 -245.1875 511.125 C-250.06018175 507.59230573 -253.7301983 504.08138923 -255.6875 498.3125 C-256.44966932 489.400397 -255.17878453 481.93447942 -252.2421875 473.55859375 C-251.88007675 472.47429077 -251.517966 471.38998779 -251.1448822 470.27282715 C-250.36899497 467.95683441 -249.58436904 465.64375348 -248.79165649 463.33346558 C-247.54699825 459.70480643 -246.32632568 456.06886561 -245.11206055 452.42993164 C-243.45587837 447.47032587 -241.79213271 442.51337788 -240.12158203 437.55859375 C-236.82424907 427.76203496 -233.5929385 417.94485348 -230.4241333 408.10598755 C-229.51571869 405.29857781 -228.59099762 402.4968932 -227.66552734 399.69506836 C-227.1159178 397.99363153 -226.56719839 396.2919068 -226.01953125 394.58984375 C-225.76525864 393.83296265 -225.51098602 393.07608154 -225.24900818 392.29626465 C-223.08184911 385.44257698 -224.00234158 381.19294789 -227.26367188 374.91210938 C-227.60978516 374.26048828 -227.95589844 373.60886719 -228.3125 372.9375 C-229.04704256 371.50402107 -229.77874684 370.06908471 -230.5078125 368.6328125 C-230.87551758 367.90868164 -231.24322266 367.18455078 -231.62207031 366.43847656 C-241.92744118 345.87496384 -248.57420489 323.89576558 -252.6875 301.3125 C-252.85121094 300.47686523 -253.01492187 299.64123047 -253.18359375 298.78027344 C-258.4762992 271.05918188 -258.08690744 238.97440963 -252.6875 211.3125 C-252.44604248 209.96696045 -252.44604248 209.96696045 -252.19970703 208.59423828 C-243.59653619 161.04952951 -221.11575398 118.0449275 -188.67578125 82.5234375 C-187.0914618 80.76169917 -185.59359002 78.98161213 -184.125 77.125 C-181.58927957 74.19916873 -178.90560067 71.77866544 -175.9609375 69.27734375 C-173.47071515 67.12514127 -171.08749575 64.87724826 -168.6875 62.625 C-135.46665152 32.46156477 -93.00916727 13.01684122 -49.3125 4 C-48.60182373 3.85256348 -47.89114746 3.70512695 -47.15893555 3.55322266 C-31.51641634 0.56786213 -15.88080394 -0.0623098 0 0 Z M-126.6875 82.3125 C-127.84867736 83.18050719 -129.01147156 84.04635518 -130.17578125 84.91015625 C-135.46806134 88.8650799 -140.53623594 92.86875051 -145.08984375 97.6796875 C-146.82554995 99.45358772 -148.66388235 101.0273374 -150.5625 102.625 C-187.81104504 135.03976439 -210.60585554 187.75730808 -214.6875 236.3125 C-215.0344681 242.66256838 -215.02810269 249.01740257 -215 255.375 C-214.99817719 256.23211578 -214.99635437 257.08923157 -214.99447632 257.97232056 C-214.85397507 297.27376879 -203.98659112 333.22759896 -184.91796875 367.4921875 C-184.36753906 368.50539063 -183.81710938 369.51859375 -183.25 370.5625 C-182.50943359 371.86960937 -182.50943359 371.86960937 -181.75390625 373.203125 C-179.210063 380.62033829 -180.73409347 387.93807629 -183.1796875 395.16796875 C-183.441483 395.98086365 -183.7032785 396.79375854 -183.9730072 397.63128662 C-184.8226711 400.25880556 -185.69240163 402.87918542 -186.5625 405.5 C-187.15464362 407.31993745 -187.74536925 409.14033683 -188.3347168 410.96118164 C-189.82010774 415.54091541 -191.3210258 420.11538762 -192.82598877 424.6887207 C-194.85324079 430.86282697 -196.84892422 437.04719471 -198.8460083 443.23110962 C-199.49030081 445.22005835 -200.13981322 447.20723594 -200.79052734 449.1940918 C-201.17547363 450.37656494 -201.56041992 451.55903809 -201.95703125 452.77734375 C-202.29323486 453.804646 -202.62943848 454.83194824 -202.97583008 455.89038086 C-203.78146817 458.211563 -203.78146817 458.211563 -203.6875 460.3125 C-195.31013552 458.12588462 -187.0802301 455.57456966 -178.84765625 452.8984375 C-177.55024876 452.47887957 -176.25275664 452.05958325 -174.95518494 451.64053345 C-171.57449895 450.54817254 -168.19470774 449.45307214 -164.81518555 448.3571167 C-159.38350529 446.59594623 -153.95075613 444.83808561 -148.51742363 443.08201981 C-146.62922142 442.47114945 -144.74161491 441.85843878 -142.85401917 441.24569702 C-141.70860153 440.87506134 -140.5631839 440.50442566 -139.38305664 440.12255859 C-137.8739547 439.63316299 -137.8739547 439.63316299 -136.33436584 439.13388062 C-127.42133618 436.36797172 -120.99431445 436.21198 -112.5 440.625 C-110.37010126 441.75079622 -108.24634309 442.88739208 -106.12451172 444.02832031 C-93.43359404 450.71578044 -80.42596365 457.10684786 -66.6875 461.3125 C-65.91229004 461.55307129 -65.13708008 461.79364258 -64.33837891 462.04150391 C-52.57675923 465.66097972 -40.89181974 468.63786975 -28.6875 470.3125 C-28.00800293 470.4060376 -27.32850586 470.4995752 -26.62841797 470.59594727 C27.07954159 477.00513557 84.29201176 463.71350019 127.3125 430.3125 C128.47367736 429.44449281 129.63647156 428.57864482 130.80078125 427.71484375 C136.09306134 423.7599201 141.16123594 419.75624949 145.71484375 414.9453125 C147.45054995 413.17141228 149.28888235 411.5976626 151.1875 410 C188.46721975 377.55810647 211.17152667 324.88647436 215.3125 276.3125 C215.6826869 269.87956456 215.70331985 263.44173745 215.6875 257 C215.68662384 256.12399139 215.68574768 255.24798279 215.68484497 254.34542847 C215.53829876 209.72286671 201.8929257 164.8360883 174.3125 129.3125 C173.44449281 128.15132264 172.57864482 126.98852844 171.71484375 125.82421875 C167.7599201 120.53193866 163.75624949 115.46376406 158.9453125 110.91015625 C157.17141228 109.17445005 155.5976626 107.33611765 154 105.4375 C121.55810647 68.15778025 68.88647436 45.45347333 20.3125 41.3125 C13.87956456 40.9423131 7.44173745 40.92168015 1 40.9375 C0.12399139 40.93837616 -0.75201721 40.93925232 -1.65457153 40.94015503 C-46.27713329 41.08670124 -91.1639117 54.7320743 -126.6875 82.3125 Z " fill="#000000" transform="translate(255.6875,-0.3125)"/>
<path d="M0 0 C6.21022081 3.77380156 11.12756342 9.38269026 13.4375 16.3125 C14.06027571 24.34732765 14.41847862 31.64415403 9.4375 38.3125 C4.85388456 43.61984419 -0.46283458 47.99473686 -7.63671875 48.55078125 C-16.8461929 48.73994883 -22.33912774 47.95995786 -29.3125 41.9375 C-35.62744532 34.57006379 -36.92244811 29.37808317 -36.84375 19.8359375 C-36.26602578 12.59833686 -33.0249729 7.99461963 -27.5625 3.3125 C-19.66584559 -2.37309117 -9.18150824 -4.36209587 0 0 Z " fill="#000000" transform="translate(367.5625,232.6875)"/>
<path d="M0 0 C6.21022081 3.77380156 11.12756342 9.38269026 13.4375 16.3125 C14.06027571 24.34732765 14.41847862 31.64415403 9.4375 38.3125 C4.85388456 43.61984419 -0.46283458 47.99473686 -7.63671875 48.55078125 C-16.8461929 48.73994883 -22.33912774 47.95995786 -29.3125 41.9375 C-35.62744532 34.57006379 -36.92244811 29.37808317 -36.84375 19.8359375 C-36.26602578 12.59833686 -33.0249729 7.99461963 -27.5625 3.3125 C-19.66584559 -2.37309117 -9.18150824 -4.36209587 0 0 Z " fill="#000000" transform="translate(267.5625,232.6875)"/>
<path d="M0 0 C6.21022081 3.77380156 11.12756342 9.38269026 13.4375 16.3125 C14.06027571 24.34732765 14.41847862 31.64415403 9.4375 38.3125 C4.85388456 43.61984419 -0.46283458 47.99473686 -7.63671875 48.55078125 C-16.8461929 48.73994883 -22.33912774 47.95995786 -29.3125 41.9375 C-35.62744532 34.57006379 -36.92244811 29.37808317 -36.84375 19.8359375 C-36.26602578 12.59833686 -33.0249729 7.99461963 -27.5625 3.3125 C-19.66584559 -2.37309117 -9.18150824 -4.36209587 0 0 Z " fill="#000000" transform="translate(167.5625,232.6875)"/>
</svg>
