<?xml version="1.0" encoding="UTF-8" standalone="no" ?>
<!DOCTYPE svg PUBLIC "-//W3C//DTD SVG 1.1//EN" "http://www.w3.org/Graphics/SVG/1.1/DTD/svg11.dtd">
<svg xmlns="http://www.w3.org/2000/svg" xmlns:xlink="http://www.w3.org/1999/xlink" version="1.1" width="1080" height="1080" viewBox="0 0 1080 1080" xml:space="preserve">
<desc>Created with Fabric.js 5.2.4</desc>
<defs>
</defs>
<rect x="0" y="0" width="100%" height="100%" fill="transparent"></rect>
<g transform="matrix(1 0 0 1 540 540)" id="da833c0f-0e03-4ae7-89fb-482cff5f0c80"  >
<rect style="stroke: none; stroke-width: 1; stroke-dasharray: none; stroke-linecap: butt; stroke-dashoffset: 0; stroke-linejoin: miter; stroke-miterlimit: 4; fill: rgb(255,255,255); fill-rule: nonzero; opacity: 1; visibility: hidden;" vector-effect="non-scaling-stroke"  x="-540" y="-540" rx="0" ry="0" width="1080" height="1080" />
</g>
<g transform="matrix(1 0 0 1 540 540)" id="a4344c24-4f13-4b95-b03f-eb564bfabc16"  >
</g>
<g transform="matrix(1 0 0 1 540 540)"  >
<g style="" vector-effect="non-scaling-stroke"   >
		<g transform="matrix(1 0 0 1 0 0)"  >
<path style="stroke: none; stroke-width: 1; stroke-dasharray: none; stroke-linecap: butt; stroke-dashoffset: 0; stroke-linejoin: miter; stroke-miterlimit: 4; fill: rgb(255,255,255); fill-rule: nonzero; opacity: 1;" vector-effect="non-scaling-stroke"  transform=" translate(0.16, -256.34)" d="M 0 0 C 1.45108658 0.00273422 1.45108658 0.00273422 2.93148804 0.00552368 C 17.26440977 0.05095174 31.21023917 0.55983928 45.3125 3.3125 C 46.65803955 3.55395752 46.65803955 3.55395752 48.03076172 3.80029297 C 95.57547049 12.40346381 138.5800725 34.88424602 174.1015625 67.32421875 C 175.86330083 68.9085382 177.64338787 70.40640998 179.5 71.875 C 182.42583127 74.41072043 184.84633456 77.09439933 187.34765625 80.0390625 C 189.49985873 82.52928485 191.74775174 84.91250425 194 87.3125 C 224.16343523 120.53334848 243.60815878 162.99083273 252.625 206.6875 C 252.77243652 207.39817627 252.91987305 208.10885254 253.07177734 208.84106445 C 256.05713787 224.48358366 256.6873098 240.11919606 256.625 256 C 256.62226578 257.45108658 256.62226578 257.45108658 256.61947632 258.93148804 C 256.57404826 273.26440977 256.06516072 287.21023917 253.3125 301.3125 C 253.15152832 302.20952637 252.99055664 303.10655273 252.82470703 304.03076172 C 244.22153619 351.57547049 221.74075398 394.5800725 189.30078125 430.1015625 C 187.7164618 431.86330083 186.21859002 433.64338787 184.75 435.5 C 182.21427957 438.42583127 179.53060067 440.84633456 176.5859375 443.34765625 C 174.09571515 445.49985873 171.71249575 447.74775174 169.3125 450 C 136.09165152 480.16343523 93.63416727 499.60815878 49.9375 508.625 C 49.22682373 508.77243652 48.51614746 508.91987305 47.78393555 509.07177734 C 32.14185465 512.05705422 16.50548677 512.6888264 0.625 512.625 C -0.34338806 512.62284485 -1.31177612 512.6206897 -2.30950928 512.61846924 C -16.62863841 512.56738117 -30.61280231 512.17266771 -44.6875 509.3125 C -46.2027124 509.01448486 -46.2027124 509.01448486 -47.74853516 508.71044922 C -73.15657867 503.59820535 -100.45900257 496.15257387 -122.43359375 481.921875 C -127.98413796 479.17658783 -133.30159437 481.35252515 -138.95703125 483.19506836 C -140.75817383 483.77719337 -140.75817383 483.77719337 -142.59570312 484.37107849 C -143.89716844 484.79806627 -145.19859974 485.22515774 -146.5 485.65234375 C -147.8728815 486.09829286 -149.2459322 486.54372135 -150.61914062 486.98866272 C -154.24532836 488.16509472 -157.86926425 489.34831675 -161.49273682 490.53308105 C -165.06031328 491.69842918 -168.62983469 492.85778114 -172.19921875 494.01757812 C -173.61393414 494.47774701 -175.02864768 494.93792157 -176.44335938 495.39810181 C -179.27599127 496.31920534 -182.10940382 497.23785429 -184.94335938 498.15487671 C -191.35599997 500.23273299 -197.76097438 502.32614171 -204.13919067 504.50776196 C -206.92574361 505.45883352 -209.71707785 506.39537095 -212.5090332 507.33044624 C -214.42809817 507.9795849 -216.34020254 508.64919103 -218.25195312 509.31956482 C -227.10226692 512.2721213 -236.11016418 514.20481037 -245.1875 511.125 C -250.06018175 507.59230573 -253.7301983 504.08138923 -255.6875 498.3125 C -256.44966932 489.400397 -255.17878453 481.93447942 -252.2421875 473.55859375 C -251.88007675 472.47429077 -251.517966 471.38998779 -251.1448822 470.27282715 C -250.36899497 467.95683441 -249.58436904 465.64375348 -248.79165649 463.33346558 C -247.54699825 459.70480643 -246.32632568 456.06886561 -245.11206055 452.42993164 C -243.45587837 447.47032587 -241.79213271 442.51337788 -240.12158203 437.55859375 C -236.82424907 427.76203496 -233.5929385 417.94485348 -230.4241333 408.10598755 C -229.51571869 405.29857781 -228.59099762 402.4968932 -227.66552734 399.69506836 C -227.1159178 397.99363153 -226.56719839 396.2919068 -226.01953125 394.58984375 C -225.76525864 393.83296265 -225.51098602 393.07608154 -225.24900818 392.29626465 C -223.08184911 385.44257698 -224.00234158 381.19294789 -227.26367188 374.91210938 C -227.60978516 374.26048828 -227.95589844 373.60886719 -228.3125 372.9375 C -229.04704256 371.50402107 -229.77874684 370.06908471 -230.5078125 368.6328125 C -230.87551758 367.90868164 -231.24322266 367.18455078 -231.62207031 366.43847656 C -241.92744118 345.87496384 -248.57420489 323.89576558 -252.6875 301.3125 C -252.85121094 300.47686523 -253.01492187 299.64123047 -253.18359375 298.78027344 C -258.4762992 271.05918188 -258.08690744 238.97440963 -252.6875 211.3125 C -252.44604248 209.96696045 -252.44604248 209.96696045 -252.19970703 208.59423828 C -243.59653619 161.04952951 -221.11575398 118.0449275 -188.67578125 82.5234375 C -187.0914618 80.76169917 -185.59359002 78.98161213 -184.125 77.125 C -181.58927957 74.19916873 -178.90560067 71.77866544 -175.9609375 69.27734375 C -173.47071515 67.12514127 -171.08749575 64.87724826 -168.6875 62.625 C -135.46665152 32.46156477 -93.00916727 13.01684122 -49.3125 4 C -48.60182373 3.85256348 -47.89114746 3.70512695 -47.15893555 3.55322266 C -31.51641634 0.56786213 -15.88080394 -0.0623098 0 0 Z M -126.6875 82.3125 C -127.84867736 83.18050719 -129.01147156 84.04635518 -130.17578125 84.91015625 C -135.46806134 88.8650799 -140.53623594 92.86875051 -145.08984375 97.6796875 C -146.82554995 99.45358772 -148.66388235 101.0273374 -150.5625 102.625 C -187.81104504 135.03976439 -210.60585554 187.75730808 -214.6875 236.3125 C -215.0344681 242.66256838 -215.02810269 249.01740257 -215 255.375 C -214.99817719 256.23211578 -214.99635437 257.08923157 -214.99447632 257.97232056 C -214.85397507 297.27376879 -203.98659112 333.22759896 -184.91796875 367.4921875 C -184.36753906 368.50539063 -183.81710938 369.51859375 -183.25 370.5625 C -182.50943359 371.86960937 -182.50943359 371.86960937 -181.75390625 373.203125 C -179.210063 380.62033829 -180.73409347 387.93807629 -183.1796875 395.16796875 C -183.441483 395.98086365 -183.7032785 396.79375854 -183.9730072 397.63128662 C -184.8226711 400.25880556 -185.69240163 402.87918542 -186.5625 405.5 C -187.15464362 407.31993745 -187.74536925 409.14033683 -188.3347168 410.96118164 C -189.82010774 415.54091541 -191.3210258 420.11538762 -192.82598877 424.6887207 C -194.85324079 430.86282697 -196.84892422 437.04719471 -198.8460083 443.23110962 C -199.49030081 445.22005835 -200.13981322 447.20723594 -200.79052734 449.1940918 C -201.17547363 450.37656494 -201.56041992 451.55903809 -201.95703125 452.77734375 C -202.29323486 453.804646 -202.62943848 454.83194824 -202.97583008 455.89038086 C -203.78146817 458.211563 -203.78146817 458.211563 -203.6875 460.3125 C -195.31013552 458.12588462 -187.0802301 455.57456966 -178.84765625 452.8984375 C -177.55024876 452.47887957 -176.25275664 452.05958325 -174.95518494 451.64053345 C -171.57449895 450.54817254 -168.19470774 449.45307214 -164.81518555 448.3571167 C -159.38350529 446.59594623 -153.95075613 444.83808561 -148.51742363 443.08201981 C -146.62922142 442.47114945 -144.74161491 441.85843878 -142.85401917 441.24569702 C -141.70860153 440.87506134 -140.5631839 440.50442566 -139.38305664 440.12255859 C -137.8739547 439.63316299 -137.8739547 439.63316299 -136.33436584 439.13388062 C -127.42133618 436.36797172 -120.99431445 436.21198 -112.5 440.625 C -110.37010126 441.75079622 -108.24634309 442.88739208 -106.12451172 444.02832031 C -93.43359404 450.71578044 -80.42596365 457.10684786 -66.6875 461.3125 C -65.91229004 461.55307129 -65.13708008 461.79364258 -64.33837891 462.04150391 C -52.57675923 465.66097972 -40.89181974 468.63786975 -28.6875 470.3125 C -28.00800293 470.4060376 -27.32850586 470.4995752 -26.62841797 470.59594727 C 27.07954159 477.00513557 84.29201176 463.71350019 127.3125 430.3125 C 128.47367736 429.44449281 129.63647156 428.57864482 130.80078125 427.71484375 C 136.09306134 423.7599201 141.16123594 419.75624949 145.71484375 414.9453125 C 147.45054995 413.17141228 149.28888235 411.5976626 151.1875 410 C 188.46721975 377.55810647 211.17152667 324.88647436 215.3125 276.3125 C 215.6826869 269.87956456 215.70331985 263.44173745 215.6875 257 C 215.68662384 256.12399139 215.68574768 255.24798279 215.68484497 254.34542847 C 215.53829876 209.72286671 201.8929257 164.8360883 174.3125 129.3125 C 173.44449281 128.15132264 172.57864482 126.98852844 171.71484375 125.82421875 C 167.7599201 120.53193866 163.75624949 115.46376406 158.9453125 110.91015625 C 157.17141228 109.17445005 155.5976626 107.33611765 154 105.4375 C 121.55810647 68.15778025 68.88647436 45.45347333 20.3125 41.3125 C 13.87956456 40.9423131 7.44173745 40.92168015 1 40.9375 C 0.12399139 40.93837616 -0.75201721 40.93925232 -1.65457153 40.94015503 C -46.27713329 41.08670124 -91.1639117 54.7320743 -126.6875 82.3125 Z" stroke-linecap="round" />
</g>
		<g transform="matrix(1 0 0 1 100.51 -0.24)"  >
<path style="stroke: none; stroke-width: 1; stroke-dasharray: none; stroke-linecap: butt; stroke-dashoffset: 0; stroke-linejoin: miter; stroke-miterlimit: 4; fill: rgb(255,255,255); fill-rule: nonzero; opacity: 1;" vector-effect="non-scaling-stroke"  transform=" translate(11.53, -23.1)" d="M 0 0 C 6.21022081 3.77380156 11.12756342 9.38269026 13.4375 16.3125 C 14.06027571 24.34732765 14.41847862 31.64415403 9.4375 38.3125 C 4.85388456 43.61984419 -0.46283458 47.99473686 -7.63671875 48.55078125 C -16.8461929 48.73994883 -22.33912774 47.95995786 -29.3125 41.9375 C -35.62744532 34.57006379 -36.92244811 29.37808317 -36.84375 19.8359375 C -36.26602578 12.59833686 -33.0249729 7.99461963 -27.5625 3.3125 C -19.66584559 -2.37309117 -9.18150824 -4.36209587 0 0 Z" stroke-linecap="round" />
</g>
		<g transform="matrix(1 0 0 1 0.51 -0.24)"  >
<path style="stroke: none; stroke-width: 1; stroke-dasharray: none; stroke-linecap: butt; stroke-dashoffset: 0; stroke-linejoin: miter; stroke-miterlimit: 4; fill: rgb(255,255,255); fill-rule: nonzero; opacity: 1;" vector-effect="non-scaling-stroke"  transform=" translate(11.53, -23.1)" d="M 0 0 C 6.21022081 3.77380156 11.12756342 9.38269026 13.4375 16.3125 C 14.06027571 24.34732765 14.41847862 31.64415403 9.4375 38.3125 C 4.85388456 43.61984419 -0.46283458 47.99473686 -7.63671875 48.55078125 C -16.8461929 48.73994883 -22.33912774 47.95995786 -29.3125 41.9375 C -35.62744532 34.57006379 -36.92244811 29.37808317 -36.84375 19.8359375 C -36.26602578 12.59833686 -33.0249729 7.99461963 -27.5625 3.3125 C -19.66584559 -2.37309117 -9.18150824 -4.36209587 0 0 Z" stroke-linecap="round" />
</g>
		<g transform="matrix(1 0 0 1 -99.49 -0.24)"  >
<path style="stroke: none; stroke-width: 1; stroke-dasharray: none; stroke-linecap: butt; stroke-dashoffset: 0; stroke-linejoin: miter; stroke-miterlimit: 4; fill: rgb(255,255,255); fill-rule: nonzero; opacity: 1;" vector-effect="non-scaling-stroke"  transform=" translate(11.53, -23.1)" d="M 0 0 C 6.21022081 3.77380156 11.12756342 9.38269026 13.4375 16.3125 C 14.06027571 24.34732765 14.41847862 31.64415403 9.4375 38.3125 C 4.85388456 43.61984419 -0.46283458 47.99473686 -7.63671875 48.55078125 C -16.8461929 48.73994883 -22.33912774 47.95995786 -29.3125 41.9375 C -35.62744532 34.57006379 -36.92244811 29.37808317 -36.84375 19.8359375 C -36.26602578 12.59833686 -33.0249729 7.99461963 -27.5625 3.3125 C -19.66584559 -2.37309117 -9.18150824 -4.36209587 0 0 Z" stroke-linecap="round" />
</g>
</g>
</g>
<g transform="matrix(1 0 0 1 540 540)"  >
<g style="" vector-effect="non-scaling-stroke"   >
		<g transform="matrix(1 0 0 1 0 0)"  >
<path style="stroke: none; stroke-width: 1; stroke-dasharray: none; stroke-linecap: butt; stroke-dashoffset: 0; stroke-linejoin: miter; stroke-miterlimit: 4; fill: rgb(255,255,255); fill-rule: nonzero; opacity: 1;" vector-effect="non-scaling-stroke"  transform=" translate(151.71, -173.27)" d="M 0 0 C 11.50475889 10.10565921 22.17523235 20.89344105 31.25488281 33.2421875 C 32.47620821 34.90021471 33.72133776 36.5379642 34.97021484 38.17529297 C 70.6532608 85.69380467 84.36452515 147.13864673 76.46630859 205.58544922 C 70.69548409 244.78890166 55.9610727 281.64782294 31.49755859 312.92919922 C 30.82337891 313.81478516 30.14919922 314.70037109 29.45458984 315.61279297 C 23.89984757 322.770966 17.73349455 329.36674095 11.49755859 335.92919922 C 10.31806641 337.1725 10.31806641 337.1725 9.11474609 338.44091797 C -4.71650575 352.64397766 -21.30342729 364.18535723 -38.50244141 373.92919922 C -39.09460449 374.27047852 -39.68676758 374.61175781 -40.296875 374.96337891 C -91.34274887 404.23248079 -154.69906378 410.52520068 -211.22900391 395.72216797 C -258.93605491 382.49342205 -303.40305188 354.72742413 -333.17138672 314.70898438 C -334.51992269 312.90582457 -335.89549106 311.12602326 -337.27587891 309.34716797 C -343.88042787 300.72892435 -349.31691099 291.71112328 -354.35888672 282.10205078 C -355.41615342 280.09315377 -356.49923539 278.10061232 -357.58837891 276.10888672 C -384.51792463 225.82766248 -388.7820516 162.29435263 -372.49072266 107.97216797 C -364.11629505 81.47706706 -352.32859608 57.09116469 -335.50244141 34.92919922 C -334.83728516 34.05134766 -334.17212891 33.17349609 -333.48681641 32.26904297 C -295.68811635 -16.20855813 -240.4041542 -47.31894216 -179.50244141 -55.07080078 C -178.78491699 -55.16651367 -178.06739258 -55.26222656 -177.328125 -55.36083984 C -113.12775925 -62.9329819 -48.72488135 -41.93679534 0 0 Z M -189.50244141 -20.07080078 C -190.32808594 -19.89919434 -191.15373047 -19.72758789 -192.00439453 -19.55078125 C -229.08129579 -11.59048722 -261.73226368 6.38572859 -289.05810547 32.54785156 C -290.34045759 33.77427961 -291.63541801 34.98749409 -292.93212891 36.19873047 C -327.88472037 69.72087779 -347.11033849 119.83692884 -348.75244141 167.67138672 C -349.78849958 223.00653115 -328.34721606 273.11147422 -290.50244141 312.92919922 C -289.92365234 313.56083984 -289.34486328 314.19248047 -288.74853516 314.84326172 C -283.50409738 320.39001045 -277.37346453 324.94876992 -271.30810547 329.55029297 C -269.66773652 330.80297061 -268.04863041 332.08336978 -266.43212891 333.36669922 C -227.21504463 363.24638247 -173.69209779 375.35471804 -125.12744141 368.80419922 C -92.12254265 363.83173858 -59.91258311 351.62713404 -33.50244141 330.92919922 C -32.19339844 329.93339844 -32.19339844 329.93339844 -30.85791016 328.91748047 C 11.23434837 296.23797896 37.74969445 248.63017601 44.47753906 195.84667969 C 50.25803536 145.43197148 36.06983348 93.90043668 5.05615234 53.72216797 C 2.9240093 51.07089444 0.74041211 48.48719821 -1.50244141 45.92919922 C -2.22947266 45.09259766 -2.95650391 44.25599609 -3.70556641 43.39404297 C -5.93627457 40.87084684 -8.20450801 38.39127071 -10.50244141 35.92919922 C -11.26041016 35.11708984 -12.01837891 34.30498047 -12.79931641 33.46826172 C -19.4846082 26.54264898 -26.81383393 20.68226206 -34.50244141 14.92919922 C -35.33388672 14.30271484 -36.16533203 13.67623047 -37.02197266 13.03076172 C -70.1880892 -11.03868572 -109.92671322 -23.28799251 -150.75244141 -23.32080078 C -151.50777161 -23.32147552 -152.26310181 -23.32215027 -153.0413208 -23.32284546 C -165.41134187 -23.30533901 -177.36409611 -22.62663561 -189.50244141 -20.07080078 Z" stroke-linecap="round" />
</g>
		<g transform="matrix(1 0 0 1 0.19 -53.11)"  >
<path style="stroke: none; stroke-width: 1; stroke-dasharray: none; stroke-linecap: butt; stroke-dashoffset: 0; stroke-linejoin: miter; stroke-miterlimit: 4; fill: rgb(255,255,255); fill-rule: nonzero; opacity: 1;" vector-effect="non-scaling-stroke"  transform=" translate(44.02, -55.23)" d="M 0 0 C 15.9243567 13.8341502 24.35180123 31.11817223 26.28515625 52.09375 C 26.87273746 71.10072484 19.77329919 89.70024992 6.9375 103.63476562 C -6.66105673 117.71139661 -24.84813301 124.84954194 -44.3125 125.3125 C -60.64301627 125.04750176 -75.18304256 120.08859521 -88 110 C -88.76054687 109.41605469 -89.52109375 108.83210938 -90.3046875 108.23046875 C -103.66359923 97.25212433 -111.60910794 80.97533365 -114 64 C -115.78393395 43.97557736 -110.87842009 25.64198282 -98.3125 9.6875 C -73.06834352 -18.95050833 -30.28233279 -22.96085319 0 0 Z M -72.75 31.8125 C -79.99152762 40.42628057 -81.9018856 49.99438157 -81 61 C -79.07079521 70.75661531 -74.52642006 78.72876358 -66.609375 84.84765625 C -57.29804838 90.80631967 -47.43423062 93.55948794 -36.46484375 91.53125 C -26.144228 88.85139923 -18.13433466 82.66023717 -12 74 C -7.00833367 64.30520296 -5.68682715 55.09434457 -8.5625 44.5625 C -12.0845069 33.91027632 -19.14995439 26.40249981 -28.89453125 20.9375 C -45.04108693 13.86700825 -61.27413964 19.63453004 -72.75 31.8125 Z" stroke-linecap="round" />
</g>
		<g transform="matrix(1 0 0 1 0.15 86.32)"  >
<path style="stroke: none; stroke-width: 1; stroke-dasharray: none; stroke-linecap: butt; stroke-dashoffset: 0; stroke-linejoin: miter; stroke-miterlimit: 4; fill: rgb(255,255,255); fill-rule: nonzero; opacity: 1;" vector-effect="non-scaling-stroke"  transform=" translate(36.06, -32.66)" d="M 0 0 C 0.71881348 0.18224121 1.43762695 0.36448242 2.17822266 0.55224609 C 11.42657041 2.95725853 20.31635935 5.98597273 29 10 C 30.10730469 10.50144531 31.21460938 11.00289063 32.35546875 11.51953125 C 47.55582883 18.72325351 68.21211986 31.42423973 76 47 C 76.50502343 52.53042052 76.73807257 57.41030524 74.375 62.5 C 69.80134327 67.3143755 66.6912538 69.25156236 60 69.5 C 52.35680808 69.18975974 49.08637153 66.12866338 43.9375 60.8125 C 32.07365558 48.75092484 16.61733377 41.02968959 0.75 35.625 C 0.05430908 35.38628174 -0.64138184 35.14756348 -1.3581543 34.90161133 C -29.98411322 25.67765416 -62.68079802 29.91424962 -89.4921875 42.66015625 C -99.00966656 47.57565426 -107.39960046 53.54571832 -115.3125 60.75 C -116.54806641 61.86955078 -116.54806641 61.86955078 -117.80859375 63.01171875 C -118.53175781 63.66785156 -119.25492188 64.32398438 -120 65 C -124.84836659 69.32137022 -128.85538015 69.61675569 -135.15625 69.3828125 C -140.39227065 68.67796357 -142.86097828 66.19897023 -146.375 62.5 C -148.77697047 57.32652513 -148.73692333 52.60837437 -148 47 C -146.5625 43.8125 -146.5625 43.8125 -144 41 C -143.13761719 40.02546875 -143.13761719 40.02546875 -142.2578125 39.03125 C -123.4956814 18.9239095 -96.46224614 6.11761604 -70 0 C -69.34257812 -0.16371094 -68.68515625 -0.32742188 -68.0078125 -0.49609375 C -47.08769851 -5.57909333 -20.82801561 -5.38112962 0 0 Z" stroke-linecap="round" />
</g>
</g>
</g>
</svg>